#!OML:ASF E:/inclinewalkrobotboard/Project1/Captureday1/Session1/subject1.ASF
:FULLY-SPECIFIED
:DEGREES
138
root 0 0 0 2.783743253452383 -4.246501507944283 2.260727518357459
lowerback 11.936551953746264 1.1408518035919393 -0.19614186956356938
upperback -4.187101196182338 1.4556632374762661 -0.7935040931196206
thorax -11.148360654405973 0.6702284852219884 -1.0378942248749643
lowerneck -6.990182424496421 1.3377005113264018 4.279129826574972
upperneck 18.927646317515638 2.770955809587436 -8.05908107937719
head 7.077961464022621 0.957904313290857 -3.126945257279999
rclavicle -1.4472179641629626E-15 -9.280718795540628E-16
rhumerus 18.007166923411198 14.110642294404323 -51.82133967040457
rradius 69.36651300800489
rwrist 23.267070962094685
rhand -32.970292662740306 -49.041067086045054
rfingers 7.125019999999963
rthumb -6.238304315694162 -79.08558699524437
lclavicle 8.551524512907993E-16 9.077579500520857E-16
lhumerus 17.916998068053722 -13.953988147936215 49.53314800530078
lradius 67.40170713018972
lwrist -18.047353374507544
lhand -43.967739705856346 -60.23133615966318
lfingers 7.125019999999957
lthumb -16.799359194222603 -30.789528190570213
rfemur -25.805942512315887 1.389142632144842 19.667335466847618
rtibia 35.7261646046469
rfoot -29.93143847979254 -17.11730639327365
rtoes -19.551043889684998
lfemur -22.927110648684632 1.0270565391527553 -16.110091258968076
ltibia 34.194755278258214
lfoot -30.502746548996107 7.363290638454278
ltoes -18.367909218391688
139
root 0 0 0 2.8586271756600197 -4.2618393908738135 2.215666441294538
lowerback 11.850326751463182 1.1681663766153503 -0.15541573586508106
upperback -4.201666786548751 1.4945068696714245 -0.8017097490325399
thorax -11.106925785230839 0.6879371068290587 -1.0729369956938821
lowerneck -6.97743350673778 1.307907048331667 4.26457068146671
upperneck 18.98975559539274 2.7258049074156023 -8.022243150320357
head 7.09750218488171 0.9389464788804288 -3.116835864835294
rclavicle -1.343369111564979E-15 -7.212260828703688E-16
rhumerus 17.79985558864037 13.86403301462668 -51.72185777280956
rradius 69.19814401092262
rwrist 23.389540769681666
rhand -32.94760941371709 -48.98053971605685
rfingers 7.125019999999962
rthumb -6.214373941825281 -79.02946458158115
lclavicle 9.393464863780065E-16 1.0162181554002654E-15
lhumerus 17.720947865721108 -13.716506336971728 49.51350025241951
lradius 67.2006703033169
lwrist -18.13517303823296
lhand -43.92518193077231 -60.24983323861075
lfingers 7.125019999999956
lthumb -16.758916741488076 -30.800175430726238
rfemur -24.44561598700983 2.030491620089109 19.986766885296973
rtibia 32.20699196960453
rfoot -29.240700594651425 -16.53955180634258
rtoes -20.747990123635308
lfemur -21.39516091354045 0.24460378691456786 -15.914191708596062
ltibia 31.160090299154866
lfoot -28.688451313580682 6.667139056638757
ltoes -19.269913756904337
140
root 0 0 0 2.8496084964598176 -4.238105337214472 2.2228310779049463
lowerback 11.80066597164074 1.16721258838718 -0.16364738606387652
upperback -4.211630188389552 1.4905205128874335 -0.8068838381645113
thorax -11.086849586467528 0.686083501216198 -1.0715731038759548
lowerneck -6.95593171972039 1.2873114198688842 4.263343383193305
upperneck 19.136329745806705 2.696311661462296 -8.029308126635172
head 7.143804224303916 0.923930225402051 -3.1227268769516012
rclavicle -1.1219385956612683E-15 -6.998832496829809E-16
rhumerus 17.4081804475355 13.356876745310712 -51.45020596768932
rradius 68.88227412664034
rwrist 23.701246513124943
rhand -32.92416602427946 -48.95919128990614
rfingers 7.125019999999962
rthumb -6.189322549446485 -79.02048950302955
lclavicle 1.0085567071044046E-15 9.366267948726974E-16
lhumerus 17.490679879574145 -13.371354114059269 49.44661921326477
lradius 66.94386866922282
lwrist -18.295719805953276
lhand -43.88893334695669 -60.3921264103567
lfingers 7.125019999999955
lthumb -16.725264147150316 -30.936072525770445
rfemur -23.95448882736088 2.025860662887932 19.57938840548529
rtibia 32.87635553328219
rfoot -26.792526030935875 -15.814677678900585
rtoes -21.018864520580507
lfemur -19.9546265178239 -0.11739180444750014 -15.56631432764583
ltibia 31.22802820818501
lfoot -25.805257457612754 5.043547301844614
ltoes -19.95177907525341
141
root 0 0 0 2.665452847093499 -4.172906931706955 2.358199957203664
lowerback 11.818210223969432 1.128238270055855 -0.2836222780301826
upperback -4.214388444348418 1.4225606117878267 -0.8219656032925525
thorax -11.108462348579081 0.6562471314395029 -1.0086696315558645
lowerneck -6.9021102744859215 1.2847117432434618 4.280368064592576
upperneck 19.423262592637922 2.696329257628803 -8.1027421246507
head 7.2320579275443855 0.9172723321377275 -3.151829319940215
rclavicle -6.307190465516849E-16 -9.641241976990233E-16
rhumerus 16.69596423944772 12.397450519035173 -50.87983006363093
rradius 68.31012705739691
rwrist 24.34239235006645
rhand -32.89888805687491 -49.007070157162815
rfingers 7.125019999999962
rthumb -6.162231966842647 -79.09777556351997
lclavicle 1.0978023578204158E-15 5.889689465464976E-16
lhumerus 17.212370943107878 -12.827448886215475 49.282876918583156
lradius 66.58968529468447
lwrist -18.59698676728157
lhand -43.86962869497755 -60.78464180671354
lfingers 7.125019999999954
lthumb -16.70890946912579 -31.324680499895553
rfemur -25.769515221762042 0.6051989715829715 17.492357541619214
rtibia 42.671165134167566
rfoot -19.99114181006177 -14.597820405434074
rtoes -19.027262182648528
lfemur -18.02116006907784 0.39052512041863874 -15.045380189826538
ltibia 38.0606502367765
lfoot -20.577408629774055 0.9958003002330953
ltoes -20.77951569435303
142
root 0 0 0 2.4030339616248435 -4.089657234123379 2.5576188063752814
lowerback 11.905034310489171 1.0696521803957297 -0.466030883451239
upperback -4.195781161795235 1.3221628688105698 -0.8368380087294985
thorax -11.154655676096805 0.6127296351645768 -0.9059211001213245
lowerneck -6.878556351673296 1.3120724986651557 4.295237348546438
upperneck 19.558453592676777 2.739475730995186 -8.166453222433464
head 7.2739566246542156 0.9312241263974003 -3.1726781863274898
rclavicle -4.070737033201319E-16 -1.284736602927277E-15
rhumerus 16.263407950585112 11.789289676540095 -50.481108167112396
rradius 67.96158810989641
rwrist 24.78357478475223
rhand -32.89470834736627 -49.0926903054877
rfingers 7.125019999999963
rthumb -6.157390413342961 -79.21006945717174
lclavicle 1.034747455846336E-15 2.256007884311248E-16
lhumerus 17.173184416530255 -12.598047236175256 49.15713447946493
lradius 66.49002044353071
lwrist -18.769511641420202
lhand -43.89787141112417 -61.116000129697916
lfingers 7.125019999999955
lthumb -16.737619027492077 -31.659460697408587
rfemur -28.83925985300938 -0.91025924180963 15.609784700825811
rtibia 52.39660109233934
rfoot -14.366040644654827 -13.767258105454946
rtoes -15.902720872116872
lfemur -16.854114397834724 1.5946475518769359 -14.92298828134473
ltibia 48.01817378737135
lfoot -16.60996404293273 -2.9605619004773973
ltoes -20.910531358478302
143
root 0 0 0 2.0475541389206393 -3.9337332481140606 2.7962445743149362
lowerback 12.0500684945341 0.9668728667594739 -0.7047144624765583
upperback -4.149409458055401 1.1578025473770448 -0.8310874413080697
thorax -11.212487777167453 0.5400909713975326 -0.740304810758641
lowerneck -6.9128618538492494 1.35878309716508 4.306932382247191
upperneck 19.616726729731877 2.8114523601836954 -8.230379695100009
head 7.298988851145964 0.9578758902946937 -3.1907739529900905
rclavicle -3.462289449421054E-16 -1.6610715821003663E-15
rhumerus 15.928084029645758 11.305835384393154 -50.150130477310725
rradius 67.69192483572013
rwrist 25.14779378518675
rhand -32.896335927216086 -49.18437310360352
rfingers 7.125019999999963
rthumb -6.158347113650374 -79.32374788100529
lclavicle 8.410977396926734E-16 -1.0735878907554012E-16
lhumerus 17.247205897633627 -12.54358114272615 49.06578199303728
lradius 66.52020993195269
lwrist -18.859633121448724
lhand -43.944283068806456 -61.37654536971535
lfingers 7.125019999999955
lthumb -16.78343134996881 -31.924866666668326
rfemur -31.785382020579284 -1.9459084350466762 14.621052116818879
rtibia 58.81612149194422
rfoot -10.72809422166139 -13.107866142384882
rtoes -12.40365194911242
lfemur -16.22976960231769 3.1518678516351946 -15.101499142570272
ltibia 59.27580330474673
lfoot -12.056540461056242 -7.11007562116084
ltoes -19.376401901175637
144
root 0 0 0 1.7205203285498283 -3.746687062613968 2.9861748854542443
lowerback 12.201403452140687 0.844933893789658 -0.9210852829836546
upperback -4.088253461113871 0.9722499740426848 -0.7991850498017127
thorax -11.25774160579346 0.45663565382865723 -0.5570498389978937
lowerneck -7.002254034275943 1.402547474045203 4.3077509306102675
upperneck 19.622344366690395 2.8790385418112807 -8.277212240346854
head 7.314737775655838 0.9835025939176795 -3.2019128549825764
rclavicle -4.8317103918681E-16 -1.976044865469174E-15
rhumerus 15.753702919285056 11.058649763571944 -49.98605524780248
rradius 67.55252475238545
rwrist 25.32885178517038
rhand -32.89614772687861 -49.22552608612026
rfingers 7.125019999999963
rthumb -6.157559420599908 -79.37189231662683
lclavicle 5.16857234010856E-16 -3.1997586631971556E-16
lhumerus 17.376609659409326 -12.660575076103145 49.04710213242403
lradius 66.64395169661863
lwrist -18.837903086642164
lhand -43.98324725664346 -61.4552551405536
lfingers 7.125019999999956
lthumb -16.821768106878533 -32.00832067985708
rfemur -33.9272826970021 -2.4431718729902645 14.418545443878301
rtibia 61.75707455568491
rfoot -9.761729593097176 -12.988979470954297
rtoes -9.639461640903443
lfemur -16.954018514723337 4.485808100612624 -15.476987012494416
ltibia 66.68966995609537
lfoot -8.797421190349322 -9.274642169331386
ltoes -16.018498270546807
145
root 0 0 0 1.545716598899996 -3.588194085734495 3.0798085022372654
lowerback 12.337869058570714 0.7268990514546896 -1.0657684569260453
upperback -4.025971817895433 0.8025962257337635 -0.743926763806641
thorax -11.285995742184332 0.37855201473809413 -0.39432789729743617
lowerneck -7.128662501462515 1.4391652513518929 4.296031773765811
upperneck 19.542824211496107 2.9368937114258467 -8.302303823493071
head 7.307117610526842 1.006485406020813 -3.203743401111063
rclavicle -7.452861012717245E-16 -2.1995666951434297E-15
rhumerus 15.94523367982474 11.327237347143049 -50.151087127448285
rradius 67.70955982291969
rwrist 25.141898946709006
rhand -32.90223808419004 -49.20837660877805
rfingers 7.125019999999963
rthumb -6.164700776836426 -79.33379374010651
lclavicle 2.642151831914028E-16 -3.9379538635617047E-16
lhumerus 17.577269080898937 -13.03584556985624 49.15605122138665
lradius 66.8973040410306
lwrist -18.634386712538017
lhand -44.00575073609181 -61.22107625063952
lfingers 7.125019999999957
lthumb -16.84360303454304 -31.77860662713373
rfemur -36.102518594249005 -2.4810932880980676 14.489799692316367
rtibia 60.91498078322071
rfoot -11.909792362834905 -14.014877735473656
rtoes -8.269818250490394
lfemur -19.744683527105373 5.364883383778631 -15.729598256280205
ltibia 69.56824503746782
lfoot -9.333565722402895 -8.26452659342554
ltoes -12.24592604424458
